# xmcd
#
# Track frame offsets:
#	150
#	14868
#	28287
#	40378
#	54177
#	66204
#	77132
#	91388
#	104878
#	117613
#
# Disc length: 1749 seconds
#
# Revision: 0
# Processed by: cddbd v1.5.2PL0 Copyright (c) Steve Scherf et al.
# Submitted via: audiograbber 1.83.01
#
DISCID=9206d30a
DTITLE=Red Sovine - Classic Songs Of Hank Williams
DYEAR=2003
DGENRE=Country
TTITLE0=I've Been Down That Road Before
TTITLE1=Be Careful Of Stones That You Throw
TTITLE2=Please Make Up Your Mind
TTITLE3=Help Me Understand
TTITLE4=Men With Broken Hearts
TTITLE5=Just Waitin'
TTITLE6=I Dreamed About Mama Last Night
TTITLE7=A Picture From Life's Other Side
TTITLE8=Everything's Okay
TTITLE9=The Funeral
EXTD=
EXTT0=
EXTT1=
EXTT2=
EXTT3=
EXTT4=
EXTT5=
EXTT6=
EXTT7=
EXTT8=
EXTT9=
PLAYORDER=
